<svg xmlns="http://www.w3.org/2000/svg" viewBox="0 0 602.15 226.64"><defs><style>.cls-1{fill:#6986c4;}.cls-2{fill:#f7aab7;}</style></defs><g id="Layer_2" data-name="Layer 2"><g id="Layer_1-2" data-name="Layer 1"><path class="cls-1" d="M103.91,108.24v17.43H34.85v51.64H0V38.76H103.91V56.18h17.43v52.06ZM86.28,56.6H34.85v51.23H86.28Z"/><path class="cls-1" d="M155.35,39.17V21.54h34.84V39.17Zm0,138.14V56.18h34.84V177.31Z"/><path class="cls-1" d="M310.7,177.31V160.1H293.48V142.88H259.26v34.43H224.41V159.68h17.22V142.47h17.21V108.24H241.63V91H224.41V56.18h34.85V73.4h17.42V90.61h34V56.18h35.05V73.81H328.33V91H311.11v34.22h17.22v17.22h17.42v34.84Z"/><path class="cls-2" d="M430.18,177.23c-14.87,0-22.8-6.69-28.75-14.87l-1.49,6.45a8.66,8.66,0,0,1-8.18,6.69H378.87a6.66,6.66,0,0,1-6.69-6.69V6.69A6.66,6.66,0,0,1,378.87,0h18.84a6.66,6.66,0,0,1,6.69,6.69v59a33.14,33.14,0,0,1,26.77-12.64c10.91,0,20.08,5.7,25,10.66,11.65,11.65,14.87,30.48,14.87,49.82C471.08,167.07,450.76,177.23,430.18,177.23ZM420,80.31c-10.41,0-16.86,10.41-16.86,35,0,24,6.7,33.47,16.86,33.47,11.4,0,17.6-7.19,17.6-33.47C437.62,91,433.65,80.31,420,80.31Z"/><path class="cls-2" d="M570,181.7c-6.45,23.79-18.1,35.44-32.23,41.89l-5.45,2.48c-3.47,1.48-6.94,0-8.68-3.48l-6.94-13.38c-1.73-3.47,0-7.19,3.47-8.68,12.64-5.95,21.32-16.11,24.79-34H535c-4,0-6.7-2.23-7.94-6.19L496.86,63.71c-1.49-4.71,1-7.69,4.71-7.69h21.81c4.22,0,6.45,2.48,7.44,6.2l17.6,69.4a62.47,62.47,0,0,1,2.48,18.1c1-5.45,1.73-10.66,3.47-18.1l15.86-69.4a7.46,7.46,0,0,1,7.44-6.2H597c3.72,0,6.2,3,4.71,8.18Z"/></g></g></svg>